<?xml version="1.0" encoding="utf-8"?>
<svg version="1.0" xmlns="http://www.w3.org/2000/svg" width="24.000000pt" height="24.000000pt" viewBox="0 0 24.000000 24.000000" preserveAspectRatio="xMidYMid meet">
  <g transform="translate(0.000000,24.000000) scale(0.100000,-0.100000)" fill="#000000" stroke="none">
    <path d="M90 231 c0 -11 26 -22 34 -14 12 12 5 23 -14 23 -11 0 -20 -4 -20 -9z" style="fill: rgb(16, 55, 92);"/>
    <path d="M135 211 c-3 -12 -27 -25 -68 -38 l-62 -20 1 -42 c1 -43 13 -67 22 -41 8 24 104 115 135 128 30 13 28 32 -3 32 -10 0 -21 -8 -25 -19z" style="fill: rgb(16, 55, 92);"/>
    <path d="M29 194 c-22 -24 -22 -26 -4 -21 11 3 32 9 48 13 30 7 35 19 11 28 -24 9 -29 8 -55 -20z" style="fill: rgb(16, 55, 92);"/>
    <path d="M173 193 c-25 -9 -14 -33 15 -33 15 0 34 -6 41 -12 10 -11 11 -9 5 7 -15 41 -30 51 -61 38z" style="fill: rgb(16, 55, 92);"/>
    <path d="M90 126 c-54 -54 -65 -79 -42 -99 47 -40 61 -30 82 61 6 28 16 55 21 58 10 6 3 24 -10 24 -4 0 -27 -20 -51 -44z" style="fill: rgb(16, 55, 92);"/>
    <path d="M185 128 c4 -13 10 -38 13 -57 6 -27 9 -31 18 -20 23 29 26 60 8 80 -24 27 -48 25 -39 -3z" style="fill: rgb(16, 55, 92);"/>
    <path d="M152 119 c-18 -44 -34 -111 -28 -116 3 -3 19 0 36 7 24 10 30 18 30 44 -1 17 -7 45 -14 61 l-14 30 -10 -26z" style="fill: rgb(16, 55, 92);"/>
  </g>
</svg>